# xmcd
#
# Track frame offsets:
#	150
#	10853
#	22848
#	39798
#	53996
#	69223
#	84211
#	99523
#	110226
#	121143
#
# Disc length: 1776 seconds
#
# Revision: 1
# Processed by: cddbd v1.5.2PL0 Copyright (c) Steve Scherf et al.
# Submitted via: audiograbber 1.83.01
#
DISCID=6b06ee0a
DTITLE=Country Heartbreak and Heartache - Love Gone Wrong
DYEAR=1900
DGENRE=Country
TTITLE0=Patsy Cline - Lovesick Blues
TTITLE1=Don Gibson - Oh, Lomesome Me
TTITLE2=Lee Greenwood - Ring On Her Finger, Time On Her Hands
TTITLE3=Merle Haggard - Always Wanting You
TTITLE4=Conway Twitty - Lost Her Love (After Our Last Date)
TTITLE5=Larry Gatlin - Just Wish You Were Someone I Loved
TTITLE6=Whitey Shafer - All My Ex's Live In Texas
TTITLE7=Roger Miller - When Two Worlds Collide
TTITLE8=Eddy Raven - I Got Mexico
TTITLE9=Roy Acuff - I'm So Lomesome I Could Cry
EXTD=
EXTT0=
EXTT1=
EXTT2=
EXTT3=
EXTT4=
EXTT5=
EXTT6=
EXTT7=
EXTT8=
EXTT9=
PLAYORDER=
